<?xml version="1.0" ?><!DOCTYPE svg  PUBLIC '-//W3C//DTD SVG 1.1//EN'  'http://www.w3.org/Graphics/SVG/1.1/DTD/svg11.dtd'><!-- Uploaded to: SVG Repo, www.svgrepo.com, Generator: SVG Repo Mixer Tools -->
<svg fill="#000000" width="800px" height="800px" viewBox="0 0 32 32" style="fill-rule:evenodd;clip-rule:evenodd;stroke-linejoin:round;stroke-miterlimit:2;" version="1.1" xml:space="preserve" xmlns="http://www.w3.org/2000/svg" xmlns:serif="http://www.serif.com/" xmlns:xlink="http://www.w3.org/1999/xlink"><path d="M27.964,23.272c-0.116,0.424 -0.504,0.735 -0.964,0.735l-0.996,-0l-0,0.99c-0,0.552 -0.448,1 -1,1c-0.552,-0 -1,-0.448 -1,-1l-0,-0.99l-1.004,-0c-0.552,-0 -1,-0.448 -1,-1c0,-0.552 0.448,-1 1,-1l1.004,-0l-0,-1.007c-0,-0.552 0.448,-1 1,-1c0.552,0 1,0.448 1,1l-0,1.007l0.996,-0c0.462,-0 0.851,0.314 0.966,0.74l0.043,-15.552c-0,-1.769 -1.435,-3.203 -3.204,-3.203l-17.614,0c-1.77,0 -3.204,1.434 -3.204,3.203l0,17.603c0,1.768 1.434,3.202 3.204,3.202l17.775,-0.037c1.651,-0.003 2.989,-1.34 2.994,-2.991l0.004,-1.7Zm-15.967,-5.279l-0.002,-0c-1.104,-0 -2.001,0.897 -2.001,2.001c-0,1.105 0.897,2.002 2.001,2.002c1.105,0 2.002,-0.897 2.002,-2.002l0,-7.122c0,-0 6.001,-0.75 6.001,-0.75l0.003,3.867c-1.105,0 -2.002,0.897 -2.002,2.002c-0,1.105 0.897,2.002 2.002,2.002c1.104,-0 2.001,-0.897 2.001,-2.002l-0.005,-7.003c-0,-0.286 -0.123,-0.559 -0.338,-0.749c-0.215,-0.189 -0.501,-0.278 -0.786,-0.242l-8,1c-0.5,0.062 -0.876,0.488 -0.876,0.992l0,6.004Z"/></svg>